inDegrees=no
num_controls=7
num_derivatives=13
num_iterations=123
num_multipliers=7
num_parameters=0
num_slacks=7
num_states=26
objective=0.430891
objective_accelerations=0.050557
objective_balance=0.006844
objective_effort=0.031375
objective_height=0.340963
objective_ligament=0.001153
solver_duration=1545.309686
status=Solve_Succeeded
success=true
DataType=double
version=3
OpenSimVersion=4.5
endheader
time	/jointset/ground_pelvis/pelvis_tilt/value	/jointset/ground_pelvis/pelvis_tx/value	/jointset/ground_pelvis/pelvis_ty/value	/jointset/hip_l/hip_flexion_l/value	/jointset/hip_l/hip_adduction_l/value	/jointset/hip_l/hip_rotation_l/value	/jointset/back/lumbar_extension/value	/jointset/patellofemoral_l/patellar_flexion_l/value	/jointset/knee_l/knee_flexion_l/value	/jointset/knee_l/knee_adduction_l/value	/jointset/knee_l/knee_rotation_l/value	/jointset/ankle_l/ankle_angle_l/value	/jointset/subtalar_l/subtalar_angle_l/value	/jointset/ground_pelvis/pelvis_tilt/speed	/jointset/ground_pelvis/pelvis_tx/speed	/jointset/ground_pelvis/pelvis_ty/speed	/jointset/hip_l/hip_flexion_l/speed	/jointset/hip_l/hip_adduction_l/speed	/jointset/hip_l/hip_rotation_l/speed	/jointset/back/lumbar_extension/speed	/jointset/patellofemoral_l/patellar_flexion_l/speed	/jointset/knee_l/knee_flexion_l/speed	/jointset/knee_l/knee_adduction_l/speed	/jointset/knee_l/knee_rotation_l/speed	/jointset/ankle_l/ankle_angle_l/speed	/jointset/subtalar_l/subtalar_angle_l/speed	/forceset/tau_hip_flexion_l	/forceset/tau_hip_adduction_l	/forceset/tau_hip_rotation_l	/forceset/tau_knee_flexion_l	/forceset/tau_ankle_angle_l	/forceset/tau_subtalar_angle_l	/forceset/tau_lumbar_extension	lambda_cid13_p0	lambda_cid13_p1	lambda_cid13_p2	lambda_cid13_p3	lambda_cid13_p4	lambda_cid13_p5	lambda_cid14_p0	/jointset/ground_pelvis/pelvis_tilt/accel	/jointset/ground_pelvis/pelvis_tx/accel	/jointset/ground_pelvis/pelvis_ty/accel	/jointset/hip_l/hip_flexion_l/accel	/jointset/hip_l/hip_adduction_l/accel	/jointset/hip_l/hip_rotation_l/accel	/jointset/back/lumbar_extension/accel	/jointset/patellofemoral_l/patellar_flexion_l/accel	/jointset/knee_l/knee_flexion_l/accel	/jointset/knee_l/knee_adduction_l/accel	/jointset/knee_l/knee_rotation_l/accel	/jointset/ankle_l/ankle_angle_l/accel	/jointset/subtalar_l/subtalar_angle_l/accel	gamma_cid13_p0	gamma_cid13_p1	gamma_cid13_p2	gamma_cid13_p3	gamma_cid13_p4	gamma_cid13_p5	gamma_cid14_p0
0.5	-0.3318538035712117	-0.02984113483639156	0.7663060068593298	1.164716411681701	-0.3050015001848276	0.01048955782023005	-0.3222087825108901	0.8163184465201507	0.8163184465200166	-0.1733653785052522	0.1672473617372373	0.1650725803827187	-0.01917290600763613	-0.4301780227303957	-0.163750174287937	-0.5105583613481759	2.124365786998072	0.0123098342627941	0.7055266306940837	-0.6275999813363711	2.117429836137001	2.117429836137281	-0.006616905389355218	0.04223935049200081	0.547312148371926	0.1037342754569117	-0.1857765196037497	0.01693239136630114	-0.02629127974909854	-0.2583788966370694	0.1002709410006385	0.04000522325030783	0.1852455578743561	-5.823397365959911	-19.15316189169742	5.847711088633153	-1.847216212004188	-604.0706568253364	-61.27843362679896	-20.53003029623012	0.4921465291676319	0.5509497551024735	-0.4393509142032341	-1.291654701116548	0.691702522303826	-0.3640467455270136	1.622536519195887	-1.348451518291763	-1.348451518291766	0.05236560483561164	-0.08831345070304221	-0.5703485165595945	0.7131394957427684	-4.222287163299659e-07	-4.158056621532367e-07	2.637982787576775e-06	2.89312907014403e-07	-5.002876786805156e-07	-2.661579544531251e-07	-4.107936237091813e-07
0.51	-0.3361300931671045	-0.0314509202581616	0.76117952838936	1.185892045763389	-0.3048453047142743	0.0175278896207616	-0.328403402271338	0.8374219050320446	0.8374219050319271	-0.1734325367079905	0.1676649168924167	0.1705158144528372	-0.01810164746536741	-0.4250292925773123	-0.1581958064115722	-0.5146296082586804	2.110488494681496	0.01890143952600823	0.7020528560610518	-0.6112614557080461	2.102979071461853	2.102979071461749	-0.006808778984528158	0.04127098633769428	0.5412439705680839	0.110491048732459	-0.1918777047058133	0.01728237782123925	-0.02635932319327548	-0.2613286803546757	0.09878085302243833	0.04002848752066784	0.1903515492239572	-6.532163945092985	-18.94071261092878	5.701382805833236	-1.574081589683988	-608.3639202704418	-60.94370469211832	-19.23497756081782	0.5337929866579842	0.5594028808221293	-0.3749488859729649	-1.476692738601491	0.6383683358038026	-0.3524259420618764	1.648887841414913	-1.535728679994423	-1.535728680051852	-0.05403840616505591	-0.1017100904242048	-0.638638133744856	0.6527448418396189	-3.905843332653669e-07	-3.204159869384669e-07	2.521105875204032e-06	2.838071430072702e-07	-4.658291204951618e-07	-1.738836801273463e-07	-3.859982987129681e-07
0.52	-0.3403533841158104	-0.03300481748578425	0.7560155499889852	1.206920721673576	-0.304624097429594	0.02452880705098894	-0.3344327613241497	0.8583723879496133	0.8583723879495088	-0.1735014285595745	0.1680726659675271	0.1758956496006276	-0.01696366147066744	-0.4195782932930579	-0.1525725354584602	-0.5180583474291437	2.094974152697982	0.02531219708816609	0.6980437566331957	-0.594547839809157	2.086834717271985	2.086834717271498	-0.006963635158553272	0.04027813447819789	0.5346323639063085	0.1170797659431629	-0.1979788898078765	0.01763236427617838	-0.02642736663745629	-0.2642784640722813	0.09729076504423843	0.04005175179102915	0.1954575405735585	-7.246389616999335	-18.72871549376655	5.556736861019818	-1.313897251460622	-612.7642857112315	-60.69194282265441	-17.93925602464055	0.5526003554018379	0.564730370451949	-0.3108493661949708	-1.619064634504372	0.6555329820925725	-0.4711117044918579	1.697554573308701	-1.687169421235546	-1.687169421235553	0.05976908906517577	-0.09321099174101537	-0.6790342881462261	0.6795282827740948	-3.621253139096065e-07	-2.279716957036923e-07	2.416318345038792e-06	2.811067810095143e-07	-4.375560819053987e-07	-8.75345427457564e-08	-3.629710523521214e-07
0.53	-0.3445207670068252	-0.03450219122691061	0.75082053795099	1.227786286383963	-0.3043395792772721	0.03148701074163347	-0.3402931535925359	0.8791531288845056	0.8791531288844384	-0.1735714341477639	0.1684702945454541	0.1812067916934137	-0.01576050759039124	-0.4138528340029635	-0.1468954880962532	-0.5208317133373848	2.077873159710113	0.03155781975059261	0.6935142270986644	-0.5774780083267641	2.069038667776648	2.069038667776337	-0.007033871197586662	0.03924594576783984	0.5275131468497966	0.1235175735113352	-0.2039644322122481	0.01777301936182905	-0.02643291244400531	-0.2673210891287735	0.09591107194702275	0.03997169496560945	0.2004514460262425	-7.930256890076406	-18.47216639763203	5.399280525518441	-1.039982043520835	-617.1865270089901	-60.40888671676407	-16.64618826663956	0.589309390347962	0.5702565573763729	-0.2438127193800627	-1.795499048075711	0.6037010566792747	-0.4565911416161474	1.719588266894395	-1.866972827974146	-1.866972827947742	-0.03983772197520267	-0.108936736523996	-0.7407777162155316	0.6206425529141928	-3.330413434122332e-07	-1.382025408892231e-07	2.304848246915501e-06	2.773003976740952e-07	-4.0905256623895e-07	-5.810864152200082e-09	-3.39104221715115e-07
0.54	-0.348629537170032	-0.03594258156676064	0.7456011457506643	1.248472864681042	-0.3039936800686536	0.03839737562419638	-0.3459812693798601	0.8997476793015863	0.8997476793015583	-0.1736420256506608	0.1688574584511094	0.1864442591552722	-0.01449402852261824	-0.4078557477314807	-0.141175855203193	-0.5229343798952822	2.059176870036342	0.03758840834748241	0.6884759950168381	-0.5600925435967791	2.049596613709658	2.049596613709523	-0.007080818100124208	0.03818520002385001	0.5198974377208111	0.1297448034425235	-0.2099499746166194	0.01791367444748017	-0.02643845825055668	-0.2703637141852653	0.09453137884980722	0.03989163814019034	0.2054453514789267	-8.619466214715601	-18.21561594476308	5.242892679218421	-0.7782137741970288	-621.7109503322652	-60.20101350520897	-15.36083962410048	0.6069257516795163	0.5732474766226279	-0.1767094961262604	-1.938123971684718	0.6125261689852284	-0.5728522139508456	1.760681222827147	-2.016370335566039	-2.016370335566031	0.0644269163643441	-0.09892239846736987	-0.7783327026408924	0.637412755377297	-3.032659376092456e-07	-5.13931114759428e-08	2.185984669349258e-06	2.722703311565806e-07	-3.802940546578705e-07	7.079528556948923e-08	-3.143084893257618e-07
0.55	-0.3526770729695688	-0.03732561532955327	0.7403641125667877	1.26896470072238	-0.3035884162301723	0.04525481159249874	-0.3514939954217265	0.9201397601920932	0.9201397601920899	-0.1737126543668761	0.1692338042248754	0.1916032417534478	-0.01316617809082719	-0.4016102218836589	-0.1354285383004472	-0.5243564176110107	2.038931529220893	0.04342636659681886	0.6829306190359441	-0.5424086855837906	2.028554345089763	2.028554345089761	-0.007041165694365705	0.0370819570180098	0.5118251273402603	0.1357860187409703	-0.2158314666960114	0.01795278983405844	-0.02637548940817163	-0.2734360105866138	0.0931869564360376	0.03967392252023651	0.2103293134727445	-9.301096292861814	-17.89249182461511	5.066619500097458	-0.4844942590221196	-626.2172200760886	-59.90883358762076	-14.08691994767731	0.639524616830495	0.5758815606698795	-0.1076479404612635	-2.106590164842079	0.5634189828057308	-0.5577215254093788	1.77883496943449	-2.187877863790056	-2.187877863770285	-0.02565280787263882	-0.1167484989575526	-0.832744849889919	0.5813373184361775	-2.728078448688071e-07	2.612286935951575e-08	2.057122084657975e-06	2.641959427883607e-07	-3.503147647640813e-07	1.389691648064133e-07	-2.889292689583195e-07
